<svg width="40" height="40" viewBox="0 0 40 40" fill="none" xmlns="http://www.w3.org/2000/svg">
<circle cx="20" cy="20" r="20" fill="#2C70BB"/>
<path d="M29.9666 25.6519H28.9335V20.4862C29.1542 20.5637 29.3946 20.5641 29.6155 20.4873C29.8364 20.4104 30.0247 20.2609 30.1495 20.0631C30.2744 19.8653 30.3285 19.6311 30.3029 19.3986C30.2774 19.1661 30.1737 18.9492 30.0088 18.7833L21.5415 10.3142C21.2186 9.9914 20.7807 9.81006 20.3241 9.81006C19.8675 9.81006 19.4296 9.9914 19.1067 10.3142L10.6394 18.7815C10.4735 18.9472 10.3689 19.1644 10.3428 19.3974C10.3167 19.6304 10.3707 19.8653 10.4958 20.0636C10.6208 20.2619 10.8096 20.4118 11.0312 20.4886C11.2527 20.5654 11.4937 20.5645 11.7147 20.4862V25.6519H10.6816C10.4076 25.6519 10.1448 25.7607 9.95103 25.9544C9.75728 26.1482 9.64844 26.411 9.64844 26.685C9.64844 26.959 9.75728 27.2218 9.95103 27.4155C10.1448 27.6093 10.4076 27.7181 10.6816 27.7181H29.9666C30.2406 27.7181 30.5034 27.6093 30.6972 27.4155C30.8909 27.2218 30.9998 26.959 30.9998 26.685C30.9998 26.411 30.8909 26.1482 30.6972 25.9544C30.5034 25.7607 30.2406 25.6519 29.9666 25.6519ZM13.781 18.562L20.3241 12.0189L26.8672 18.562V25.6519H23.4235V21.175C23.4235 20.901 23.3146 20.6382 23.1209 20.4444C22.9271 20.2507 22.6644 20.1418 22.3904 20.1418H18.2578C17.9838 20.1418 17.7211 20.2507 17.5273 20.4444C17.3336 20.6382 17.2247 20.901 17.2247 21.175V25.6519H13.781V18.562ZM21.3572 25.6519H19.291V22.2081H21.3572V25.6519Z" fill="white"/>
</svg>
