<svg width="16" height="16" viewBox="0 0 16 16" fill="none" xmlns="http://www.w3.org/2000/svg">
<path d="M8.50001 7.96361V14.4999C8.50001 14.6325 8.44733 14.7596 8.35356 14.8534C8.25979 14.9472 8.13261 14.9999 8.00001 14.9999C7.8674 14.9999 7.74022 14.9472 7.64645 14.8534C7.55268 14.7596 7.50001 14.6325 7.50001 14.4999V7.96361C6.62421 7.8372 5.8288 7.38376 5.27386 6.69453C4.71891 6.00531 4.44562 5.13147 4.50899 4.24887C4.57236 3.36627 4.96768 2.54043 5.61539 1.93755C6.26311 1.33468 7.11514 0.999512 8.00001 0.999512C8.88488 0.999512 9.7369 1.33468 10.3846 1.93755C11.0323 2.54043 11.4277 3.36627 11.491 4.24887C11.5544 5.13147 11.2811 6.00531 10.7262 6.69453C10.1712 7.38376 9.3758 7.8372 8.50001 7.96361Z" fill="#ED7C5C"/>
</svg>
