<svg width="315" height="20" viewBox="0 0 315 20" fill="none" xmlns="http://www.w3.org/2000/svg">
<path d="M101.791 16V6.2H104.801C107.111 6.2 108.721 7.054 108.721 9.084C108.721 10.526 107.909 11.38 106.621 11.744L108.917 16H107.461L105.333 11.954C105.165 11.968 104.983 11.968 104.801 11.968H103.093V16H101.791ZM103.093 10.918H104.801C106.369 10.918 107.419 10.47 107.419 9.084C107.419 7.698 106.369 7.25 104.801 7.25H103.093V10.918ZM113.093 16.14C111.231 16.14 109.579 14.796 109.579 12.36C109.579 9.966 111.189 8.58 113.079 8.58C115.403 8.58 116.593 10.274 116.565 12.668H110.909V12.808C110.979 14.32 111.973 15.118 113.093 15.118C114.073 15.118 114.815 14.642 115.109 13.788H116.439C116.005 15.328 114.675 16.14 113.093 16.14ZM110.909 11.688H115.221C115.081 10.33 114.227 9.602 113.065 9.602C111.973 9.602 111.063 10.33 110.909 11.688ZM119.576 12.696C118.666 12.514 117.686 12.052 117.686 10.792C117.686 9.392 118.988 8.58 120.458 8.58C121.816 8.58 123.118 9.294 123.286 10.652H121.984C121.872 9.952 121.256 9.602 120.472 9.602C119.604 9.602 118.988 10.05 118.988 10.722C118.988 11.408 119.618 11.562 120.08 11.66L121.508 11.926C122.614 12.108 123.426 12.626 123.426 13.886C123.426 15.286 122.18 16.14 120.542 16.14C118.988 16.14 117.742 15.384 117.504 13.886H118.806C118.946 14.754 119.674 15.118 120.542 15.118C121.522 15.118 122.124 14.656 122.124 13.956C122.124 13.27 121.592 13.074 120.99 12.962L119.576 12.696ZM127.962 16.14C126.1 16.14 124.448 14.796 124.448 12.36C124.448 9.966 126.058 8.58 127.948 8.58C130.272 8.58 131.462 10.274 131.434 12.668H125.778V12.808C125.848 14.32 126.842 15.118 127.962 15.118C128.942 15.118 129.684 14.642 129.978 13.788H131.308C130.874 15.328 129.544 16.14 127.962 16.14ZM125.778 11.688H130.09C129.95 10.33 129.096 9.602 127.934 9.602C126.842 9.602 125.932 10.33 125.778 11.688ZM135.79 16C134.124 16.21 133.13 15.762 133.13 14.11V9.77H132.066V8.72H133.13V7.04H134.432V8.72H135.79V9.77H134.432V13.998C134.432 14.936 134.992 15.118 135.79 15.006V16ZM140.545 6.2H146.579V7.25H141.847V10.498H146.299V11.548H141.847V16H140.545V6.2ZM147.948 8.72H149.25V16H147.948V8.72ZM147.906 7.684V6.074H149.292V7.684H147.906ZM151.225 6.2H152.527V16H151.225V6.2ZM157.443 16C155.777 16.21 154.783 15.762 154.783 14.11V9.77H153.719V8.72H154.783V7.04H156.085V8.72H157.443V9.77H156.085V13.998C156.085 14.936 156.645 15.118 157.443 15.006V16ZM161.708 16.14C159.846 16.14 158.194 14.796 158.194 12.36C158.194 9.966 159.804 8.58 161.694 8.58C164.018 8.58 165.208 10.274 165.18 12.668H159.524V12.808C159.594 14.32 160.588 15.118 161.708 15.118C162.688 15.118 163.43 14.642 163.724 13.788H165.054C164.62 15.328 163.29 16.14 161.708 16.14ZM159.524 11.688H163.836C163.696 10.33 162.842 9.602 161.68 9.602C160.588 9.602 159.678 10.33 159.524 11.688ZM166.665 16V8.72H167.967V10.358C168.429 9.056 169.381 8.552 170.613 8.664V9.812C169.171 9.616 167.967 10.092 167.967 12.584V16H166.665ZM174.811 6.2H176.113V10.568H180.845V6.2H182.147V16H180.845V11.618H176.113V16H174.811V6.2ZM187.207 16.14C185.345 16.14 183.693 14.796 183.693 12.36C183.693 9.966 185.303 8.58 187.193 8.58C189.517 8.58 190.707 10.274 190.679 12.668H185.023V12.808C185.093 14.32 186.087 15.118 187.207 15.118C188.187 15.118 188.929 14.642 189.223 13.788H190.553C190.119 15.328 188.789 16.14 187.207 16.14ZM185.023 11.688H189.335C189.195 10.33 188.341 9.602 187.179 9.602C186.087 9.602 185.177 10.33 185.023 11.688ZM191.687 14.012C191.687 12.71 192.779 11.912 195.243 11.758L196.545 11.66V11.408C196.545 10.036 195.915 9.602 194.949 9.602C194.011 9.602 193.325 10.12 193.185 10.96H191.911C192.163 9.49 193.409 8.58 194.977 8.58C196.657 8.58 197.847 9.336 197.847 11.59V13.76C197.847 14.754 198.015 15.566 198.183 16H196.909C196.811 15.748 196.727 15.384 196.699 14.866C196.293 15.636 195.551 16.14 194.277 16.14C192.597 16.14 191.687 15.146 191.687 14.012ZM192.989 13.97C192.989 14.6 193.479 15.188 194.599 15.188C195.859 15.188 196.545 14.334 196.545 13.284V12.598L195.495 12.682C193.773 12.794 192.989 13.13 192.989 13.97ZM199.748 6.2H201.05V16H199.748V6.2ZM205.966 16C204.3 16.21 203.306 15.762 203.306 14.11V9.77H202.242V8.72H203.306V7.04H204.608V8.72H205.966V9.77H204.608V13.998C204.608 14.936 205.168 15.118 205.966 15.006V16ZM212.174 11.716C212.174 10.26 211.572 9.602 210.536 9.602C209.36 9.602 208.59 10.428 208.59 11.982V16H207.288V6.2H208.59V9.98C209.066 9.056 209.906 8.58 210.984 8.58C212.468 8.58 213.476 9.49 213.476 11.52V16H212.174V11.716Z" fill="white"/>
<path d="M100.559 17.75H214.442V18.45H100.559V17.75Z" fill="white"/>
</svg>
